<svg width="13" height="7" viewBox="0 0 13 7" fill="none" xmlns="http://www.w3.org/2000/svg">
<path d="M0.577135 1.56033C0.580252 1.68103 0.612359 1.79951 0.671097 1.90706C0.729834 2.01461 0.813709 2.10851 0.916558 2.18184L6.23451 5.94403C6.39318 6.05868 6.58972 6.11841 6.79058 6.11302C6.99143 6.10762 7.18414 6.03744 7.3358 5.91445L12.4197 1.73545C12.5927 1.59357 12.6983 1.39353 12.7131 1.17935C12.728 0.96516 12.6509 0.75437 12.4988 0.593345C12.3468 0.432322 12.1322 0.334255 11.9023 0.320718C11.6725 0.307181 11.4461 0.379283 11.273 0.521163L6.73153 4.2571L1.9807 0.89201C1.8505 0.796642 1.69365 0.738053 1.52872 0.723176C1.36378 0.7083 1.19766 0.737758 1.05 0.808065C0.902346 0.878372 0.779341 0.986586 0.695541 1.1199C0.61174 1.25322 0.570651 1.40606 0.577135 1.56033Z" fill="#F16214"/>
</svg>
