<svg width="13" height="7" viewBox="0 0 13 7" fill="none" xmlns="http://www.w3.org/2000/svg">
<path d="M12.1885 5.24094C12.1854 5.12024 12.1533 5.00176 12.0945 4.89421C12.0358 4.78665 11.9519 4.69276 11.8491 4.61943L6.53111 0.857242C6.37245 0.742589 6.17591 0.682859 5.97505 0.688254C5.7742 0.693649 5.58148 0.763832 5.42982 0.88682L0.345946 5.06582C0.172901 5.2077 0.0673446 5.40774 0.0525003 5.62192C0.037656 5.83611 0.114739 6.0469 0.266792 6.20792C0.418845 6.36895 0.633412 6.46701 0.863292 6.48055C1.09317 6.49409 1.31953 6.42199 1.49258 6.28011L6.0341 2.54417L10.7849 5.90926C10.9151 6.00463 11.072 6.06322 11.2369 6.07809C11.4018 6.09297 11.568 6.06351 11.7156 5.9932C11.8633 5.9229 11.9863 5.81468 12.0701 5.68137C12.1539 5.54805 12.195 5.39521 12.1885 5.24094Z" fill="#F16214"/>
</svg>
